<svg width="33" height="20" viewBox="0 0 33 20" fill="none" xmlns="http://www.w3.org/2000/svg">
<g clip-path="url(#clip0_1_6356)">
<path d="M2.4418 0H30.4418C31.3255 0 32.0418 0.71636 32.0418 1.6V18.4C32.0418 19.2837 31.3255 20 30.4418 20H2.4418C1.55816 20 0.841797 19.2837 0.841797 18.4V1.6C0.841797 0.71636 1.55816 0 2.4418 0Z" fill="#2557D6"/>
<path d="M0.851762 9.4277H2.3494L2.68708 8.6473H3.44308L3.77988 9.4277H6.7266V8.8311L6.98964 9.4303H8.51936L8.7824 8.82222V9.42774H16.1056L16.1022 8.1467H16.2439C16.343 8.15002 16.372 8.15878 16.372 8.31574V9.42774H20.1596V9.12954C20.4652 9.28634 20.9403 9.42774 21.5655 9.42774H23.159L23.5 8.64734H24.256L24.5894 9.42774H27.66V8.68646L28.1251 9.42774H30.5857V4.52734H28.1505V5.10606L27.8096 4.52734H25.3108V5.10606L24.9976 4.52734H21.6224C21.0575 4.52734 20.5609 4.6029 20.1597 4.81346V4.52734H17.8305V4.81346C17.5752 4.59642 17.2274 4.52734 16.8405 4.52734H8.33092L7.75996 5.79298L7.1736 4.52734H4.4934V5.10606L4.19892 4.52734H1.91312L0.851562 6.85718V9.42762H0.851682L0.851762 9.4277ZM10.3054 8.7209H9.4068L9.40348 5.96914L8.13248 8.72086H7.36288L6.08856 5.9667V8.72086H4.30576L3.96896 7.93718H2.14388L1.80368 8.72086H0.851643L2.42128 5.20738H3.72364L5.2144 8.53394V5.20738H6.64504L7.79216 7.59086L8.84592 5.20738H10.3053L10.3054 8.7209ZM3.66936 7.20798L3.06944 5.8073L2.47284 7.20798H3.66936ZM13.8814 8.72082H10.9532V5.20734H13.8814V5.93898H11.8298V6.5723H13.8322V7.2925H11.8298V7.99418H13.8813L13.8814 8.72082ZM18.0078 6.15362C18.0078 6.71378 17.6176 7.00322 17.3902 7.0901C17.582 7.16002 17.7458 7.28362 17.8238 7.38598C17.9476 7.56074 17.9689 7.71682 17.9689 8.03062V8.72082H17.0848L17.0814 8.27774C17.0814 8.06634 17.1026 7.7623 16.9431 7.59326C16.815 7.46966 16.6198 7.44286 16.3042 7.44286H15.3633V8.72086H14.4867V5.20734H16.5028C16.9507 5.20734 17.2808 5.21866 17.5642 5.37562C17.8415 5.53258 18.0078 5.7617 18.0078 6.15362ZM16.8998 6.6753C16.7793 6.74538 16.6369 6.7477 16.4662 6.7477H15.4014V5.9673H16.4806C16.6334 5.9673 16.7928 5.97386 16.8964 6.03066C17.01 6.08186 17.0804 6.19078 17.0804 6.34126C17.0804 6.49486 17.0134 6.61842 16.8998 6.6753ZM19.4136 8.72082H18.5192V5.20734H19.4136V8.72082ZM29.796 8.72082H28.5538L26.8924 6.08374V8.72082H25.1073L24.7662 7.93714H22.9454L22.6146 8.72082H21.5886C21.1627 8.72082 20.6231 8.63054 20.3177 8.33222C20.0097 8.0339 19.8494 7.62982 19.8494 6.9909C19.8494 6.46982 19.9452 5.99346 20.3219 5.61702C20.6053 5.33662 21.0491 5.20734 21.6531 5.20734H22.5017V5.96018H21.6708C21.351 5.96018 21.1703 6.00578 20.9964 6.1683C20.847 6.31626 20.7444 6.5959 20.7444 6.96418C20.7444 7.34058 20.8225 7.61202 20.9854 7.7893C21.1203 7.92834 21.3656 7.9705 21.5962 7.9705H21.9899L23.2253 5.20746H24.5387L26.0228 8.5307V5.2075H27.3574L28.8982 7.65446V5.2075H29.796V8.72082ZM24.468 7.20802L23.8614 5.80734L23.2581 7.20802H24.468ZM32.0296 14.3312C31.8167 14.6295 31.4018 14.7807 30.8401 14.7807H29.1474V14.0271H30.8332C31.0005 14.0271 31.1175 14.0061 31.188 13.9401C31.2546 13.8812 31.2922 13.798 31.2916 13.711C31.2916 13.6085 31.249 13.5273 31.1845 13.4785C31.1209 13.4249 31.0284 13.4005 30.8756 13.4005C30.0527 13.3737 29.0259 13.4249 29.0259 12.3128C29.0259 11.8031 29.3636 11.2665 30.2834 11.2665H32.0294V10.5674H30.4071C29.9176 10.5674 29.562 10.6798 29.3101 10.8543V10.5673H26.9107C26.5269 10.5673 26.0766 10.6585 25.8636 10.8543V10.5673H21.5788V10.8543C21.2378 10.6187 20.6624 10.5673 20.3968 10.5673H17.5706V10.8543C17.3008 10.604 16.7009 10.5673 16.3351 10.5673H13.172L12.4483 11.3179L11.7703 10.5673H7.04512V15.4709H11.6811L12.427 14.7085L13.1296 15.4709L15.9872 15.4734V14.3199H16.2681C16.6472 14.3255 17.0945 14.3107 17.489 14.1474V15.4708H19.8461V14.1927H19.9598C20.1049 14.1927 20.1192 14.1985 20.1192 14.3373V15.4706H27.2796C27.7342 15.4706 28.2094 15.3592 28.4726 15.1568V15.4706H30.7438C31.2164 15.4706 31.6779 15.4071 32.0291 15.2447L32.0292 14.3311L32.0296 14.3312ZM17.832 12.445C17.832 13.4213 17.0718 13.6228 16.3056 13.6228H15.2119V14.8016H13.5082L12.4289 13.6381L11.3072 14.8016H7.83512V11.2872H11.3605L12.439 12.4392L13.554 11.2872H16.3548C17.0504 11.2872 17.832 11.4717 17.832 12.445ZM10.8632 14.0624H8.70804V13.3632H10.6324V12.6461H8.70804V12.0072H10.9056L11.8644 13.0313L10.8632 14.0624ZM14.3356 14.4648L12.9898 13.0332L14.3356 11.6472V14.4648ZM16.3258 12.9021H15.1931V12.0072H16.336C16.6525 12.0072 16.8722 12.1308 16.8722 12.4381C16.8722 12.742 16.6626 12.9021 16.3258 12.9021ZM22.2602 11.2872H25.1858V12.014H23.1332V12.6529H25.1356V13.37H23.1332V14.0692L25.1857 14.0724V14.8016H22.2602L22.2602 11.2872ZM21.1355 13.1684C21.3306 13.2374 21.4901 13.361 21.5648 13.4634C21.6886 13.635 21.7065 13.7951 21.7101 14.1049V14.8016H20.83V14.3619C20.83 14.1505 20.8512 13.8374 20.6883 13.674C20.5603 13.5481 20.365 13.518 20.0453 13.518H19.1085V14.8016H18.2277V11.2873H20.2514C20.6952 11.2873 21.0184 11.3061 21.3061 11.4531C21.5827 11.6133 21.7567 11.8326 21.7567 12.2335C21.7567 12.7944 21.3662 13.0807 21.1355 13.1684ZM20.6401 12.7241C20.5228 12.7908 20.3778 12.7965 20.2074 12.7965H19.1425V12.0073H20.2218C20.3778 12.0073 20.534 12.0105 20.6401 12.0707C20.7537 12.1277 20.8216 12.2366 20.8216 12.3869C20.8216 12.5372 20.7536 12.6583 20.6401 12.7241ZM28.5529 12.948C28.7237 13.1171 28.815 13.3308 28.815 13.6925C28.815 14.4485 28.3222 14.8014 27.438 14.8014H25.7308V14.0478H27.4312C27.5975 14.0478 27.7154 14.0268 27.7892 13.9608C27.8496 13.9065 27.8928 13.8275 27.8928 13.7317C27.8928 13.6292 27.846 13.548 27.7858 13.4992C27.7188 13.4456 27.6264 13.4213 27.4737 13.4213C26.654 13.3945 25.6274 13.4456 25.6274 12.3336C25.6274 11.8238 25.9616 11.2873 26.8806 11.2873H28.6379V12.0353H27.03C26.8706 12.0353 26.767 12.0411 26.6788 12.0987C26.5828 12.1556 26.5472 12.2401 26.5472 12.3515C26.5472 12.4841 26.6287 12.5743 26.739 12.6133C26.8314 12.6441 26.9308 12.6531 27.08 12.6531L27.5519 12.6654C28.0277 12.6764 28.3544 12.7553 28.5529 12.948ZM32.0311 12.0072H30.4336C30.2741 12.0072 30.168 12.0129 30.0789 12.0707C29.9864 12.1276 29.9508 12.212 29.9508 12.3235C29.9508 12.4561 30.0288 12.5463 30.1424 12.5853C30.2349 12.6161 30.3342 12.6251 30.4802 12.6251L30.9553 12.6373C31.4346 12.6487 31.7546 12.7276 31.9497 12.9202C31.9854 12.947 32.0066 12.9771 32.031 13.0072V12.0072H32.0311Z" fill="white"/>
</g>
<defs>
<clipPath id="clip0_1_6356">
<rect width="31.2" height="20" fill="white" transform="translate(0.841797)"/>
</clipPath>
</defs>
</svg>
