<svg width="25" height="24" viewBox="0 0 25 24" fill="none" xmlns="http://www.w3.org/2000/svg">
<path d="M2 12C2 14.0767 2.61581 16.1068 3.76957 17.8335C4.92332 19.5602 6.5632 20.906 8.48182 21.7007C10.4004 22.4955 12.5116 22.7034 14.5484 22.2982C16.5852 21.8931 18.4562 20.8931 19.9246 19.4246C21.3931 17.9562 22.3931 16.0852 22.7982 14.0484C23.2034 12.0116 22.9955 9.90045 22.2007 7.98182C21.406 6.0632 20.0602 4.42332 18.3335 3.26957C16.6068 2.11581 14.5767 1.5 12.5 1.5C9.71523 1.5 7.04451 2.60625 5.07538 4.57538C3.10625 6.54451 2 9.21523 2 12ZM6.5 11.25H15.6125L11.4275 7.04475L12.5 6L18.5 12L12.5 18L11.4275 16.9298L15.6125 12.75H6.5V11.25Z" fill="#EBF3FC"/>
</svg>
