<svg width="12" height="12" viewBox="0 0 12 12" fill="none" xmlns="http://www.w3.org/2000/svg">
<path d="M6.5833 0.184082V1.36242C9.14413 1.67742 10.9583 4.00492 10.6433 6.56575C10.375 8.68908 8.70663 10.3749 6.5833 10.6257V11.7924C9.79163 11.4716 12.125 8.62492 11.8041 5.41658C11.5416 2.64575 9.34247 0.458249 6.5833 0.184082ZM5.41663 0.201582C4.27913 0.312415 3.19413 0.749915 2.30747 1.48492L3.14163 2.34825C3.79497 1.82325 4.58247 1.48492 5.41663 1.36825V0.201582ZM1.48497 2.30742C0.7556 3.19253 0.306752 4.27505 0.195801 5.41658H1.36247C1.4733 4.58825 1.79997 3.80075 2.31913 3.14158L1.48497 2.30742ZM8.04163 3.95825L5.19497 6.80492L3.9583 5.56825L3.33997 6.18658L5.19497 8.04158L8.65997 4.57658L8.04163 3.95825ZM0.201634 6.58325C0.318301 7.72658 0.767467 8.80575 1.4908 9.69241L2.31913 8.85825C1.80401 8.19885 1.47561 7.4131 1.3683 6.58325H0.201634ZM3.14163 9.71575L2.30747 10.5149C3.19109 11.2515 4.27287 11.7102 5.41663 11.8332V10.6666C4.58678 10.5593 3.80104 10.2309 3.14163 9.71575Z" fill="#73CA5C"/>
</svg>
