<svg width="8" height="12" viewBox="0 0 8 12" fill="none" xmlns="http://www.w3.org/2000/svg">
<path d="M7.66664 2.66675H1.28664C1.20158 2.66554 1.11764 2.64712 1.03988 2.61259C0.962132 2.57806 0.892178 2.52815 0.834241 2.46585C0.776304 2.40355 0.731585 2.33017 0.702781 2.25012C0.673977 2.17007 0.661684 2.08501 0.666644 2.00008C0.666229 1.83107 0.730026 1.6682 0.845128 1.54444C0.960229 1.42067 1.11804 1.34525 1.28664 1.33341H7.66664C7.75505 1.33341 7.83983 1.2983 7.90235 1.23578C7.96486 1.17327 7.99998 1.08849 7.99998 1.00008C7.99998 0.911676 7.96486 0.826891 7.90235 0.764379C7.83983 0.701867 7.75505 0.666748 7.66664 0.666748H1.28664C0.941172 0.678847 0.613903 0.824646 0.37386 1.0734C0.133817 1.32214 -0.000234615 1.6544 -2.28214e-05 2.00008C-0.0032476 2.05448 -0.0032476 2.10902 -2.28214e-05 2.16341C-0.00323443 2.18998 -0.00323443 2.21684 -2.28214e-05 2.24341V10.0001C-0.000234615 10.3458 0.133817 10.678 0.37386 10.9268C0.613903 11.1755 0.941172 11.3213 1.28664 11.3334H7.66664C7.75505 11.3334 7.83983 11.2983 7.90235 11.2358C7.96486 11.1733 7.99998 11.0885 7.99998 11.0001V3.02341C8.00017 2.93273 7.96581 2.84537 7.90389 2.77912C7.84197 2.71286 7.75714 2.67268 7.66664 2.66675ZM7.33331 10.6667H1.28664C1.11804 10.6549 0.960229 10.5795 0.845128 10.4557C0.730026 10.332 0.666229 10.1691 0.666644 10.0001V3.18341C0.856174 3.28797 1.07028 3.33977 1.28664 3.33341H7.33331V10.6667Z" fill="#73CA5C"/>
</svg>
