<svg width="27" height="20" viewBox="0 0 27 20" fill="none" xmlns="http://www.w3.org/2000/svg">
<g clip-path="url(#clip0_1_6354)">
<path d="M6.16749 18.8889C6.16749 18.5369 6.40672 18.2478 6.7977 18.2478C7.17135 18.2478 7.42348 18.5245 7.42348 18.8889C7.42348 19.2534 7.17135 19.5301 6.7977 19.5301C6.40672 19.5301 6.16749 19.2409 6.16749 18.8889ZM7.8494 18.8889V17.8873H7.39766V18.1313C7.25438 17.951 7.03705 17.8379 6.7415 17.8379C6.15927 17.8379 5.70234 18.2781 5.70234 18.8894C5.70234 19.5008 6.15901 19.941 6.7415 19.941C7.03693 19.941 7.25438 19.8278 7.39766 19.6476V19.8907H7.84889V18.8889H7.8494ZM23.1131 18.8889C23.1131 18.5369 23.3523 18.2478 23.7434 18.2478C24.1175 18.2478 24.3692 18.5245 24.3692 18.8889C24.3692 19.2534 24.1175 19.5301 23.7434 19.5301C23.3525 19.5301 23.1131 19.2409 23.1131 18.8889ZM24.7955 18.8889V17.0833H24.3434V18.1313C24.2001 17.951 23.9828 17.8379 23.6872 17.8379C23.105 17.8379 22.6481 18.2781 22.6481 18.8894C22.6481 19.5008 23.1048 19.941 23.6872 19.941C23.9828 19.941 24.2001 19.8278 24.3434 19.6476V19.8907H24.7955V18.8889ZM13.4561 18.2272C13.7472 18.2272 13.9341 18.4031 13.9819 18.7129H12.904C12.9522 18.4237 13.1343 18.2272 13.4562 18.2272H13.4561ZM13.4652 17.8368C12.8564 17.8368 12.4305 18.2638 12.4305 18.8883C12.4305 19.5251 12.8735 19.9399 13.4954 19.9399C13.8083 19.9399 14.0949 19.8646 14.347 19.6593L14.1257 19.3366C13.9515 19.4708 13.7297 19.5461 13.5213 19.5461C13.2301 19.5461 12.9651 19.4161 12.8999 19.0556H14.4425C14.4469 19.0014 14.4515 18.9468 14.4515 18.8882C14.4469 18.2639 14.0464 17.8366 13.4649 17.8366L13.4652 17.8368ZM18.919 18.8882C18.919 18.5362 19.1582 18.2471 19.5492 18.2471C19.9228 18.2471 20.175 18.5238 20.175 18.8882C20.175 19.2526 19.9228 19.5293 19.5492 19.5293C19.1582 19.5293 18.9189 19.2402 18.9189 18.8882H18.919ZM20.6008 18.8882V17.8873H20.1493V18.1313C20.0055 17.951 19.7887 17.8379 19.4931 17.8379C18.9109 17.8379 18.4539 18.2781 18.4539 18.8894C18.4539 19.5008 18.9106 19.941 19.4931 19.941C19.7887 19.941 20.0055 19.8278 20.1493 19.6476V19.8907H20.6009V18.8889L20.6008 18.8882ZM16.3679 18.8882C16.3679 19.4957 16.8066 19.9398 17.4762 19.9398C17.7891 19.9398 17.9975 19.8727 18.223 19.701L18.006 19.349C17.8364 19.4665 17.6583 19.5293 17.4617 19.5293C17.1011 19.5251 16.836 19.2737 16.836 18.8882C16.836 18.5027 17.1011 18.2515 17.4617 18.2471C17.6578 18.2471 17.8359 18.3099 18.006 18.4274L18.223 18.0754C17.9971 17.9037 17.7887 17.8366 17.4762 17.8366C16.8066 17.8366 16.3679 18.2806 16.3679 18.8882ZM22.1915 17.8366C21.9309 17.8366 21.7612 17.9541 21.6438 18.1301V17.8873H21.1962V19.8896H21.6484V18.7672C21.6484 18.4358 21.7961 18.2517 22.0914 18.2517C22.1881 18.2504 22.2841 18.2675 22.3739 18.3021L22.5131 17.8917C22.4132 17.8537 22.2828 17.837 22.1913 17.837L22.1915 17.8366ZM10.0828 18.0465C9.86546 17.9084 9.56598 17.837 9.23563 17.837C8.70934 17.837 8.3705 18.0802 8.3705 18.478C8.3705 18.8045 8.62276 19.0059 9.08728 19.0688L9.30069 19.098C9.54839 19.1316 9.66534 19.1944 9.66534 19.3075C9.66534 19.4624 9.5008 19.5507 9.19183 19.5507C8.87894 19.5507 8.65314 19.4543 8.50087 19.3412L8.28861 19.6807C8.53631 19.8567 8.8492 19.9406 9.18804 19.9406C9.78799 19.9406 10.1357 19.6683 10.1357 19.287C10.1357 18.9351 9.86204 18.7509 9.40992 18.6881L9.19702 18.6583C9.00147 18.6339 8.84477 18.596 8.84477 18.4618C8.84477 18.3154 8.99248 18.2273 9.24031 18.2273C9.50548 18.2273 9.76217 18.3237 9.88799 18.399L10.0835 18.047L10.0828 18.0465ZM15.9116 17.8374C15.651 17.8374 15.4813 17.9549 15.3644 18.1308V17.8873H14.9167V19.8896H15.3685V18.7672C15.3685 18.4358 15.5162 18.2517 15.8115 18.2517C15.9082 18.2504 16.0042 18.2675 16.094 18.3021L16.2332 17.8917C16.1332 17.8537 16.0029 17.837 15.9113 17.837L15.9116 17.8374ZM12.0567 17.8873H11.318V17.2798H10.8613V17.8873H10.44V18.2852H10.8613V19.1987C10.8613 19.6633 11.0484 19.94 11.5828 19.94C11.7789 19.94 12.0047 19.8814 12.1479 19.7852L12.0175 19.4123C11.8827 19.4876 11.7349 19.5256 11.6175 19.5256C11.3917 19.5256 11.318 19.3914 11.318 19.1904V18.2856H12.0567V17.8873ZM5.30287 19.8901V18.6335C5.30287 18.1602 4.98998 17.8418 4.48559 17.8375C4.22042 17.8332 3.9469 17.9128 3.75539 18.1937C3.61211 17.9717 3.3863 17.8375 3.06886 17.8375C2.84697 17.8375 2.63015 17.9003 2.46042 18.1348V17.8873H2.0083V19.8896H2.46396V18.7794C2.46396 18.4318 2.66395 18.2471 2.97279 18.2471C3.27277 18.2471 3.42453 18.4356 3.42453 18.775V19.8894H3.8812V18.7791C3.8812 18.4315 4.08967 18.2468 4.38952 18.2468C4.69798 18.2468 4.84518 18.4353 4.84518 18.7747V19.8891L5.30287 19.8901Z" fill="#231F20"/>
<path d="M16.5913 14.1667H9.9248V1.66675H16.5915L16.5913 14.1667Z" fill="#FF5F00"/>
<path d="M10.6257 7.91667C10.6257 5.39159 11.8181 3.14224 13.6748 1.69266C12.2694 0.593783 10.5311 -0.00261366 8.74124 8.61048e-06C4.33228 8.61048e-06 0.758301 3.54436 0.758301 7.91667C0.758301 12.289 4.33228 15.8333 8.74124 15.8333C10.5311 15.836 12.2695 15.2396 13.675 14.1407C11.8184 12.6914 10.6257 10.4419 10.6257 7.91667Z" fill="#EB001B"/>
<path d="M26.175 7.91667C26.175 12.289 22.6012 15.8333 18.1924 15.8333C16.4025 15.8359 14.664 15.2395 13.2583 14.1407C15.1155 12.6911 16.3078 10.4419 16.3078 7.91667C16.3078 5.39146 15.1155 3.14224 13.2583 1.69266C14.6639 0.593816 16.4024 -0.0025677 18.1923 8.31014e-06C22.601 8.31014e-06 26.1748 3.54436 26.1748 7.91667" fill="#F79E1B"/>
</g>
<defs>
<clipPath id="clip0_1_6354">
<rect width="25.8333" height="20" fill="white" transform="translate(0.758301)"/>
</clipPath>
</defs>
</svg>
