<svg width="32" height="20" viewBox="0 0 32 20" fill="none" xmlns="http://www.w3.org/2000/svg">
<path d="M6.77682 6.77397C6.44086 6.54301 6.00246 6.42725 5.46162 6.42725H3.36778C3.20198 6.42725 3.11038 6.51017 3.09298 6.67585L2.24242 12.015C2.23358 12.0675 2.2467 12.1154 2.28166 12.159C2.31642 12.2027 2.36014 12.2244 2.4125 12.2244H3.40706C3.5815 12.2244 3.67738 12.1417 3.69498 11.9758L3.9305 10.5364C3.9391 10.4666 3.96978 10.4099 4.02214 10.3662C4.07446 10.3226 4.1399 10.2941 4.21842 10.2811C4.29694 10.2681 4.37098 10.2616 4.4409 10.2616C4.51062 10.2616 4.59346 10.266 4.68958 10.2747C4.78546 10.2834 4.84658 10.2876 4.87278 10.2876C5.62302 10.2876 6.2119 10.0762 6.63946 9.65297C7.06682 9.22993 7.28074 8.64329 7.28074 7.89281C7.28074 7.37809 7.11262 7.00517 6.77682 6.77385V6.77397ZM5.69726 8.37717C5.6535 8.68257 5.54022 8.88313 5.35702 8.97913C5.17378 9.07525 4.91206 9.12309 4.57186 9.12309L4.13998 9.13613L4.3625 7.73585C4.37986 7.63997 4.43654 7.59197 4.53258 7.59197H4.7813C5.1301 7.59197 5.38326 7.64225 5.5403 7.74241C5.69726 7.84281 5.74962 8.05445 5.69726 8.37717Z" fill="#003087"/>
<path d="M28.8733 6.42725H27.905C27.8088 6.42725 27.7521 6.47525 27.7349 6.57129L26.8842 12.0153L26.8711 12.0414C26.8711 12.0853 26.8885 12.1265 26.9235 12.1658C26.9582 12.205 27.0021 12.2246 27.0543 12.2246H27.9182C28.0837 12.2246 28.1753 12.1419 28.193 11.976L29.0436 6.62365V6.61065C29.0435 6.48845 28.9867 6.42741 28.8733 6.42741V6.42725Z" fill="#009CDE"/>
<path d="M17.1741 8.53452C17.1741 8.491 17.1566 8.44948 17.1219 8.41032C17.0869 8.37108 17.0476 8.35132 17.0041 8.35132H15.9965C15.9003 8.35132 15.8218 8.39516 15.7608 8.48216L14.3737 10.5237L13.7979 8.56076C13.7541 8.42128 13.6582 8.35132 13.51 8.35132H12.5284C12.4847 8.35132 12.4454 8.371 12.4108 8.41032C12.3758 8.44948 12.3584 8.49108 12.3584 8.53452C12.3584 8.55208 12.4435 8.80936 12.6136 9.30664C12.7836 9.80408 12.9668 10.3406 13.1632 10.9165C13.3595 11.4922 13.4619 11.7977 13.4707 11.8323C12.7552 12.8096 12.3977 13.333 12.3977 13.4027C12.3977 13.5162 12.4543 13.5729 12.5678 13.5729H13.5754C13.6714 13.5729 13.7498 13.5294 13.811 13.4421L17.1481 8.62608C17.1654 8.6088 17.1741 8.5784 17.1741 8.53448V8.53452Z" fill="#003087"/>
<path d="M26.5572 8.35112H25.5626C25.4403 8.35112 25.3664 8.49512 25.3402 8.78308C25.1131 8.4342 24.699 8.25952 24.0969 8.25952C23.4688 8.25952 22.9343 8.49512 22.4939 8.96624C22.0532 9.43736 21.833 9.99152 21.833 10.6283C21.833 11.1432 21.9835 11.5532 22.2844 11.8584C22.5854 12.164 22.9888 12.3164 23.495 12.3164C23.748 12.3164 24.0054 12.264 24.2671 12.1594C24.5288 12.0547 24.7336 11.9152 24.8822 11.7406C24.8822 11.7494 24.8733 11.7885 24.8561 11.8583C24.8384 11.9282 24.8298 11.9807 24.8298 12.0153C24.8298 12.1551 24.8864 12.2247 25 12.2247H25.903C26.0686 12.2247 26.1647 12.142 26.1908 11.9761L26.7274 8.56048C26.736 8.50808 26.723 8.4602 26.6881 8.41652C26.653 8.373 26.6095 8.35112 26.5572 8.35112ZM24.8494 10.9293C24.627 11.1474 24.3586 11.2564 24.0446 11.2564C23.7915 11.2564 23.5866 11.1867 23.4295 11.047C23.2724 10.9078 23.1939 10.7158 23.1939 10.4712C23.1939 10.1487 23.303 9.8758 23.5212 9.65336C23.739 9.43088 24.0097 9.31968 24.3325 9.31968C24.5766 9.31968 24.7794 9.39164 24.941 9.53552C25.1022 9.67952 25.1832 9.878 25.1832 10.1311C25.1831 10.4451 25.0719 10.7113 24.8494 10.9293Z" fill="#009CDE"/>
<path d="M11.6906 8.35112H10.696C10.5737 8.35112 10.4997 8.49512 10.4735 8.78308C10.2379 8.4342 9.82351 8.25952 9.23027 8.25952C8.60211 8.25952 8.06767 8.49512 7.62715 8.96624C7.18651 9.43736 6.96631 9.99152 6.96631 10.6283C6.96631 11.1432 7.11683 11.5532 7.41783 11.8584C7.71883 12.164 8.12223 12.3164 8.62831 12.3164C8.87247 12.3164 9.12563 12.264 9.38731 12.1594C9.64903 12.0547 9.85843 11.9152 10.0155 11.7406C9.98047 11.8452 9.96311 11.9369 9.96311 12.0153C9.96311 12.1551 10.0198 12.2247 10.1332 12.2247H11.0362C11.2018 12.2247 11.2979 12.142 11.3241 11.9761L11.8606 8.56048C11.8692 8.50808 11.8562 8.4602 11.8214 8.41652C11.7865 8.373 11.7429 8.35112 11.6906 8.35112ZM9.98283 10.9358C9.76031 11.1498 9.48755 11.2564 9.16495 11.2564C8.91179 11.2564 8.70895 11.1867 8.55639 11.047C8.40363 10.9078 8.32735 10.7158 8.32735 10.4712C8.32735 10.1487 8.43635 9.8758 8.65455 9.65336C8.87251 9.43088 9.14299 9.31964 9.46591 9.31964C9.71007 9.31964 9.91291 9.39164 10.0745 9.53552C10.2357 9.67952 10.3165 9.878 10.3165 10.1311C10.3165 10.4539 10.2053 10.7222 9.98283 10.9358Z" fill="#003087"/>
<path d="M21.6431 6.77397C21.3072 6.54301 20.8689 6.42725 20.3279 6.42725H18.2471C18.0726 6.42725 17.9766 6.51017 17.9593 6.67585L17.1086 12.015C17.0998 12.0675 17.1129 12.1154 17.1479 12.159C17.1825 12.2027 17.2263 12.2244 17.2787 12.2244H18.3517C18.4564 12.2244 18.5262 12.1678 18.5612 12.0544L18.7967 10.5364C18.8054 10.4666 18.8359 10.4099 18.8884 10.3662C18.9407 10.3226 19.0061 10.2941 19.0847 10.2811C19.1631 10.2681 19.2372 10.2616 19.3071 10.2616C19.3769 10.2616 19.4597 10.266 19.5557 10.2747C19.6517 10.2834 19.7129 10.2876 19.7389 10.2876C20.4893 10.2876 21.0781 10.0762 21.5057 9.65297C21.9332 9.22993 22.1469 8.64329 22.1469 7.89281C22.1469 7.37809 21.9789 7.00513 21.6431 6.77385V6.77397ZM20.3018 8.92673C20.1098 9.05757 19.8219 9.12297 19.4381 9.12297L19.0193 9.13609L19.2417 7.73577C19.259 7.63993 19.3157 7.59185 19.4118 7.59185H19.6473C19.8393 7.59185 19.9919 7.60061 20.1055 7.61801C20.2187 7.63553 20.3279 7.68997 20.4326 7.78153C20.5374 7.87317 20.5897 8.00629 20.5897 8.18069C20.5897 8.54725 20.4936 8.79577 20.3018 8.92673Z" fill="#009CDE"/>
</svg>
