<svg width="27" height="20" viewBox="0 0 27 20" fill="none" xmlns="http://www.w3.org/2000/svg">
<g clip-path="url(#clip0_1_6355)">
<path d="M13.4041 8.55756C13.39 9.67194 14.3973 10.2938 15.1561 10.6636C15.9357 11.043 16.1975 11.2862 16.1945 11.6254C16.1886 12.1447 15.5726 12.3738 14.9961 12.3827C13.9903 12.3984 13.4056 12.1112 12.9407 11.894L12.5784 13.5894C13.0448 13.8044 13.9085 13.9918 14.8042 14C16.9065 14 18.282 12.9622 18.2894 11.3532C18.2976 9.31114 15.4648 9.19807 15.4841 8.28529C15.4908 8.00856 15.7549 7.71322 16.3337 7.63809C16.6201 7.60015 17.4108 7.57114 18.3073 7.98401L18.6591 6.34369C18.1771 6.16812 17.5574 6 16.786 6C14.8072 6 13.4153 7.05189 13.4041 8.55756ZM22.0402 6.14134C21.6563 6.14134 21.3327 6.36526 21.1884 6.70895L18.1852 13.8795H20.2861L20.7041 12.7242L23.2714 12.7242L23.5139 13.8795H25.3655L23.7497 6.14134H22.0402ZM22.334 8.23173L22.9403 11.1374H21.2799L22.334 8.23173ZM10.857 6.14134L9.20106 13.8795H11.2029L12.8581 6.14134L10.857 6.14134ZM7.8955 6.14134L5.81181 11.4082L4.96896 6.92989C4.87002 6.42998 4.47947 6.14134 4.04577 6.14134H0.639407L0.591797 6.366C1.29107 6.51776 2.08557 6.76251 2.56688 7.02436C2.86146 7.1843 2.94553 7.32416 3.04223 7.7043L4.63866 13.8795H6.75434L9.99779 6.14134H7.8955Z" fill="#1B2073"/>
<path d="M0.591797 0H26.0825V2.66667H0.591797V0Z" fill="#1B2073"/>
<path d="M0.591797 17.3333H26.0825V19.9999H0.591797V17.3333Z" fill="#F7B802"/>
</g>
<defs>
<clipPath id="clip0_1_6355">
<rect width="26.25" height="20" fill="white" transform="translate(0.591797)"/>
</clipPath>
</defs>
</svg>
